<?xml version="1.0" encoding="utf-8"?>
<!-- Generator: Adobe Illustrator 21.0.2, SVG Export Plug-In . SVG Version: 6.00 Build 0)  -->
<svg version="1.1" id="Lag_1" xmlns="http://www.w3.org/2000/svg" xmlns:xlink="http://www.w3.org/1999/xlink" x="0px" y="0px"
	 viewBox="0 0 14.7 21.5" style="enable-background:new 0 0 14.7 21.5;" xml:space="preserve">
<style type="text/css">
	.st0{fill:url(#SVGID_1_);}
	.st1{fill:url(#SVGID_2_);}
	.st2{fill:url(#SVGID_3_);}
</style>
<linearGradient id="SVGID_1_" gradientUnits="userSpaceOnUse" x1="7.3535" y1="0.8333" x2="7.3535" y2="17.9583">
	<stop  offset="0" style="stop-color:#00D2FF"/>
	<stop  offset="0.5" style="stop-color:#00C6FF"/>
	<stop  offset="1" style="stop-color:#1FA2FF"/>
</linearGradient>
<path class="st0" d="M8.7,19.2v-8h2.7L11.8,8H8.7V6c0-0.9,0.3-1.5,1.5-1.5l1.7,0V1.7c-0.3,0-1.3-0.1-2.4-0.1c-2.4,0-4,1.5-4,4.1V8
	H2.8v3.1h2.7v8H8.7L8.7,19.2z"/>
<g>
	
		<linearGradient id="SVGID_2_" gradientUnits="userSpaceOnUse" x1="-507.386" y1="2271.5608" x2="443.396" y2="2271.5608" gradientTransform="matrix(-7.546060e-02 0 0 -7.546060e-02 -62.1078 176.6444)">
		<stop  offset="0" style="stop-color:#00D2FF"/>
		<stop  offset="0.5" style="stop-color:#00C6FF"/>
		<stop  offset="1" style="stop-color:#1FA2FF"/>
	</linearGradient>
	<path class="st1" d="M-23.8,23.3h-71.7v-36.1h71.7V23.3z M-80.6,8.3h41.7V2.2h-41.7V8.3z"/>
</g>
<g>
	
		<linearGradient id="SVGID_3_" gradientUnits="userSpaceOnUse" x1="-506.3831" y1="2321.0034" x2="345.5011" y2="2321.0034" gradientTransform="matrix(-7.546060e-02 0 0 -7.546060e-02 -62.1078 176.6444)">
		<stop  offset="0" style="stop-color:#00D2FF"/>
		<stop  offset="0.5" style="stop-color:#00C6FF"/>
		<stop  offset="1" style="stop-color:#1FA2FF"/>
	</linearGradient>
	<polygon class="st2" points="-23.9,15.8 -38.9,15.8 -38.9,2.2 -88.2,2.2 -88.2,-12.8 -23.9,-12.8 	"/>
</g>
</svg>
